<svg xmlns="http://www.w3.org/2000/svg" width="32" height="32" viewBox="0 0 32 32" fill="none" role="img" class="icon ">
  <path d="M16 30.5C24.0081 30.5 30.5 24.0081 30.5 16C30.5 7.99188 24.0081 1.5 16 1.5C7.99188 1.5 1.5 7.99188 1.5 16C1.5 24.0081 7.99188 30.5 16 30.5Z" stroke="currentColor" stroke-width="2" stroke-miterlimit="10" stroke-linecap="round" stroke-linejoin="round"></path>
  <path d="M8.95724 23.0446L5.8501 26.1517" stroke="#0d0c22" stroke-width="2" stroke-miterlimit="10" stroke-linecap="round" stroke-linejoin="round"></path>
  <path d="M23.0425 8.95712L26.1496 5.84998" stroke="#0d0c22" stroke-width="2" stroke-miterlimit="10" stroke-linecap="round" stroke-linejoin="round"></path>
  <path d="M12.4914 19.8671C13.2302 20.9753 14.5229 21.5292 16.0004 21.5292C18.0319 21.5292 19.8787 20.2365 19.8787 18.7591C19.8787 17.0969 18.2166 15.9888 16.0004 15.9888C13.9689 15.9888 12.1221 14.6961 12.1221 13.2186C12.1221 11.5565 13.7842 10.4484 16.0004 10.4484C17.2932 10.4484 18.7706 11.0024 19.5093 12.1105" stroke="#0d0c22" stroke-width="2" stroke-miterlimit="10" stroke-linecap="round" stroke-linejoin="round"></path>
  <path d="M16 21.7142V23.5611" stroke="#0d0c22" stroke-width="2" stroke-miterlimit="10" stroke-linecap="round" stroke-linejoin="round"></path>
  <path d="M16.0005 8.23145V10.263" stroke="#0d0c22" stroke-width="2" stroke-miterlimit="10" stroke-linecap="round" stroke-linejoin="round"></path>
</svg>