<svg xmlns="http://www.w3.org/2000/svg" width="32" height="32" viewBox="0 0 32 32" fill="none" role="img" class="icon ">
  <path d="M2.45772 5.20121C2.59147 4.04803 3.29109 3.09601 4.42461 2.84533C6.19272 2.45431 9.61987 2 16 2C22.3801 2 25.8073 2.45431 27.5754 2.84533C28.7089 3.09601 29.4085 4.04803 29.5423 5.20121C29.7445 6.94507 30 9.81707 30 13.2C30 19.5199 26.6645 25.4335 21.0452 28.3255C19.1681 29.2916 17.3361 30 16 30C14.6639 30 12.8319 29.2916 10.9548 28.3255C5.33545 25.4335 2 19.5199 2 13.2C2 9.81707 2.25545 6.94507 2.45772 5.20121Z" stroke="#0d0c22" stroke-width="2" stroke-linecap="round" stroke-linejoin="round"></path>
  <path d="M7.56064 9.25829C7.66771 8.17395 8.32444 7.28922 9.39671 7.09575C10.604 6.87795 12.6408 6.66669 16 6.66669C19.3592 6.66669 21.3961 6.87795 22.6034 7.09575C23.6756 7.28922 24.3324 8.17395 24.4394 9.25829C24.5512 10.3894 24.6667 12.0081 24.6667 13.8667C24.6667 17.4094 22.9469 20.6738 20.0652 22.7346C18.596 23.7853 17.0505 24.6667 16 24.6667C14.9496 24.6667 13.404 23.7853 11.9349 22.7346C9.05317 20.6738 7.33337 17.4094 7.33337 13.8667C7.33337 12.0081 7.44891 10.3894 7.56064 9.25829Z" stroke="#0d0c22" stroke-width="2" stroke-linecap="round" stroke-linejoin="round"></path>
</svg>